<mxfile host="65bd71144e">
    <diagram id="nKe4jBS60kGgTOzVcaci" name="Page-1">
        <mxGraphModel dx="621" dy="776" grid="1" gridSize="10" guides="1" tooltips="1" connect="1" arrows="1" fold="1" page="1" pageScale="1" pageWidth="850" pageHeight="1100" math="0" shadow="0">
            <root>
                <mxCell id="0"/>
                <mxCell id="1" parent="0"/>
                <mxCell id="4" value="" style="html=1;shadow=0;dashed=0;align=center;verticalAlign=middle;shape=mxgraph.arrows2.arrow;dy=0.6;dx=40;notch=0;labelBackgroundColor=none;" vertex="1" parent="1">
                    <mxGeometry x="190" y="70" width="100" height="70" as="geometry"/>
                </mxCell>
                <mxCell id="6" value="" style="verticalLabelPosition=bottom;verticalAlign=top;html=1;shape=mxgraph.basic.rect;fillColor2=none;strokeWidth=1;size=20;indent=5;labelBackgroundColor=none;" vertex="1" parent="1">
                    <mxGeometry x="50" y="70" width="120" height="60" as="geometry"/>
                </mxCell>
                <mxCell id="7" value="contracts" style="text;strokeColor=none;align=center;fillColor=none;html=1;verticalAlign=middle;whiteSpace=wrap;rounded=0;labelBackgroundColor=none;" vertex="1" parent="1">
                    <mxGeometry x="80" y="85" width="60" height="30" as="geometry"/>
                </mxCell>
                <mxCell id="8" value="" style="verticalLabelPosition=bottom;verticalAlign=top;html=1;shape=mxgraph.basic.rect;fillColor2=none;strokeWidth=1;size=20;indent=5;labelBackgroundColor=none;" vertex="1" parent="1">
                    <mxGeometry x="330" y="70" width="120" height="60" as="geometry"/>
                </mxCell>
                <mxCell id="9" value="typechain-types" style="text;strokeColor=none;align=center;fillColor=none;html=1;verticalAlign=middle;whiteSpace=wrap;rounded=0;labelBackgroundColor=none;" vertex="1" parent="1">
                    <mxGeometry x="360" y="85" width="60" height="30" as="geometry"/>
                </mxCell>
                <mxCell id="10" value="" style="verticalLabelPosition=bottom;verticalAlign=top;html=1;shape=mxgraph.basic.rect;fillColor2=none;strokeWidth=1;size=20;indent=5;labelBackgroundColor=none;" vertex="1" parent="1">
                    <mxGeometry x="50" y="700" width="120" height="60" as="geometry"/>
                </mxCell>
                <mxCell id="11" value="scripts" style="text;strokeColor=none;align=center;fillColor=none;html=1;verticalAlign=middle;whiteSpace=wrap;rounded=0;labelBackgroundColor=none;" vertex="1" parent="1">
                    <mxGeometry x="80" y="715" width="60" height="30" as="geometry"/>
                </mxCell>
                <mxCell id="12" value="" style="verticalLabelPosition=bottom;verticalAlign=top;html=1;shape=mxgraph.basic.rect;fillColor2=none;strokeWidth=1;size=20;indent=5;labelBackgroundColor=none;" vertex="1" parent="1">
                    <mxGeometry x="350" y="700" width="120" height="60" as="geometry"/>
                </mxCell>
                <mxCell id="13" value="schema" style="text;strokeColor=none;align=center;fillColor=none;html=1;verticalAlign=middle;whiteSpace=wrap;rounded=0;labelBackgroundColor=none;" vertex="1" parent="1">
                    <mxGeometry x="380" y="715" width="60" height="30" as="geometry"/>
                </mxCell>
                <mxCell id="15" value="" style="html=1;shadow=0;dashed=0;align=center;verticalAlign=middle;shape=mxgraph.arrows2.arrow;dy=1;dx=53;notch=0;labelBackgroundColor=none;" vertex="1" parent="1">
                    <mxGeometry x="210" y="690" width="100" height="70" as="geometry"/>
                </mxCell>
            </root>
        </mxGraphModel>
    </diagram>
</mxfile>